<svg xmlns="http://www.w3.org/2000/svg" viewBox="-0.5 -0.5 16 16" fill="orange" id="Beer-Stein-Bold--Streamline-Phosphor.svg" height="16" width="16"><desc>Beer Stein Bold Streamline Icon: https://streamlinehq.com</desc><path d="M12.67222265625 5.050001953125h-0.8166679687499999V4.233333984375c-0.001875 -1.653005859375 -1.34143359375 -2.9925703125 -2.9944453125000003 -2.9944453125000003h-0.6621796875C7.348236328124999 0.54336328125 6.219193359375 0.15 5.050001953125 0.15c-2.5520859375 0 -4.62778125 1.8320566406249998 -4.62778125 4.083333984375v9.255556640625c0 0.751740234375 0.609369140625 1.36114453125 1.3611152343750001 1.361109375h8.711109375c0.751693359375 -0.00003515625 1.361109375 -0.609416015625 1.361109375 -1.361109375v-0.2722265625h0.8166679687499999c1.052408203125 0 1.9055566406250002 -0.8531425781249999 1.9055566406250002 -1.90555078125v-4.3555546875c0 -1.0524140625 -0.8531484375 -1.9055566406250002 -1.9055566406250002 -1.9055566406250002ZM5.050001953125 1.7833359375c0.87451171875 0 1.70138671875 0.3144140625 2.2757753906250002 0.862259765625 0.15205078125000002 0.145505859375 0.35440429687499997 0.2266875 0.564861328125 0.22662890624999998h0.970470703125c0.6468984375 -0.000134765625 1.2045117187499998 0.4550625 1.333892578125 1.088888671875H2.074611328125c0.1660546875 -1.225001953125 1.436654296875 -2.17777734375 2.975390625 -2.17777734375Zm5.17222265625 11.433328125000001H2.055556640625V5.594443359375h8.16666796875Zm2.72221875 -1.90555078125c0 0.15033984374999998 -0.12188085937499998 0.27221484375000005 -0.272220703125 0.272220703125h-0.8166679687499999v-4.900001953125h0.8166679687499999c0.150345703125 0 0.272220703125 0.12188085937499998 0.272220703125 0.2722265625ZM5.32222265625 7.5v3.8111132812500004c0 0.628669921875 -0.6805546875 1.021587890625 -1.225001953125 0.7072499999999999 -0.2526796875 -0.145880859375 -0.40833398437499996 -0.415482421875 -0.40833398437499996 -0.7072499999999999V7.5c0 -0.628669921875 0.6805546875 -1.021587890625 1.225001953125 -0.7072558593749999 0.2526796875 0.14588671874999998 0.40833398437499996 0.41548828125000004 0.40833398437499996 0.7072558593749999Zm3.2666660156250003 0v3.8111132812500004c0 0.628669921875 -0.6805546875 1.021587890625 -1.225001953125 0.7072499999999999 -0.252673828125 -0.145880859375 -0.40833398437499996 -0.415482421875 -0.40833398437499996 -0.7072499999999999V7.5c0 -0.628669921875 0.6805546875 -1.021587890625 1.225001953125 -0.7072558593749999 0.2526796875 0.14588671874999998 0.40833398437499996 0.41548828125000004 0.40833398437499996 0.7072558593749999Z" stroke-width="1"></path></svg>