<?xml version="1.0" encoding="iso-8859-1"?>
<!-- Uploaded to: SVG Repo, www.svgrepo.com, Generator: SVG Repo Mixer Tools -->
<svg fill="red" stroke="black" stroke-width="3" height="800px" width="800px" version="1.1" id="Layer_1" xmlns="http://www.w3.org/2000/svg" xmlns:xlink="http://www.w3.org/1999/xlink"
	 viewBox="0 0 512 512" xml:space="preserve">

	 <path stroke="brown" stroke-linecap="round" stroke-linejoin="round" stroke-miterlimit="10" d="M26.771250000000002 36.5625h16.770000000000003" stroke-width="3"></path>
<g>
	<g>
		<path d="M495.304,300.522c-11.371,0-237.864,0-250.431,0v-83.487c0-0.002,0-0.004,0-0.007
			c-0.004-35.935-12.809-64.124-39.142-86.169c-9.041-7.569-9.082-20.134-0.011-27.624c26.346-21.753,39.154-50.06,39.154-86.534
			c0-9.22-7.475-16.695-16.695-16.695H16.695C7.474,0.004,0,7.48,0,16.7c0,0.169,0.002,0.338,0.007,0.506
			c0.121,35.85,13.021,63.955,39.428,85.901c8.962,7.448,8.725,19.979-0.219,27.356c-26.383,21.76-39.209,50.081-39.209,86.58
			v244.866c0,27.617,22.469,50.086,50.086,50.086h144.693c8.302,0,16.305-2.011,23.445-5.799c7.012,3.705,15,5.799,23.469,5.799
			h73.127c11.049,0,21.597-3.701,30.143-10.135c8.427,6.385,18.933,10.135,30.292,10.135h73.127
			c25.841,0,47.266-19.39,49.838-45.102c0.003-0.041,0.008-0.082,0.012-0.124l13.688-148.016
			C512.833,308.972,505.125,300.522,495.304,300.522z M50.093,478.604c-9.206,0-16.695-7.49-16.695-16.695v-16.695h156.459
			l1.993,21.556c0.004,0.041,0.008,0.082,0.012,0.124c0.408,4.081,1.294,8,2.596,11.711H50.093z M211.481,300.519h-16.695
			c-4.695,0-9.174,1.977-12.337,5.447c-3.163,3.469-4.72,8.111-4.287,12.786l8.607,93.07H33.397v-194.78
			c0-26.626,8.347-45.383,27.062-60.82c25.163-20.753,25.271-58.053,0.317-78.796C46.349,65.437,37.874,51.194,34.763,33.393h175.45
			c-2.968,18.117-11.238,32.105-25.754,44.09c-25.156,20.772-25.189,58.023-0.164,78.976c18.547,15.528,27.186,34.779,27.186,60.583
			V300.519z M314.826,478.604h-73.127c-4.484,0-8.559-1.762-11.567-4.651c-0.001-0.001-0.002-0.002-0.002-0.003
			c-0.001-0.001-0.003-0.003-0.006-0.004c-2.754-2.648-4.612-6.24-5.033-10.323l-11.995-129.712h100.03l12.286,132.859
			c0.004,0.041,0.008,0.082,0.012,0.124c0.234,2.341,0.629,4.627,1.164,6.853C323.507,476.794,319.289,478.604,314.826,478.604z
			 M464.998,463.622c-0.882,8.545-8.012,14.981-16.607,14.981h-73.127c-8.596,0-15.726-6.437-16.607-14.981L346.661,333.91h130.332
			L464.998,463.622z"/>
	</g>
</g>
<g>
	<g>
		<path d="M320.013,169.201c-10.337-5.98-10.342-25.386,0-31.367c7.982-4.617,10.71-14.83,6.093-22.812
			c-4.616-7.98-14.83-10.71-22.811-6.093c-32.546,18.827-32.543,70.349,0,89.173c10.337,5.98,10.342,25.386,0,31.367
			c-7.982,4.617-10.71,14.83-6.093,22.811s14.83,10.708,22.811,6.093C352.559,239.548,352.556,188.026,320.013,169.201z"/>
	</g>
</g>
<g>
	<g>
		<path d="M386.795,169.201c-10.337-5.98-10.342-25.386,0-31.367c7.982-4.617,10.71-14.83,6.093-22.812
			c-4.617-7.98-14.829-10.71-22.811-6.093c-32.546,18.827-32.543,70.349,0,89.173c10.337,5.98,10.342,25.386,0,31.367
			c-7.982,4.617-10.71,14.83-6.093,22.811c4.617,7.982,14.83,10.708,22.811,6.093C419.341,239.548,419.337,188.026,386.795,169.201z
			"/>
	</g>
</g>
<g>
	<g>
		<path d="M453.576,169.201c-10.337-5.98-10.342-25.386,0-31.367c7.982-4.617,10.71-14.83,6.093-22.812
			c-4.617-7.98-14.83-10.71-22.811-6.093c-32.546,18.827-32.543,70.349,0,89.173c10.337,5.98,10.342,25.386,0,31.367
			c-7.982,4.617-10.71,14.83-6.093,22.811c4.617,7.982,14.83,10.708,22.812,6.093C486.122,239.548,486.119,188.026,453.576,169.201z
			"/>
	</g>
</g>
</svg>

